<?xml version="1.0" standalone="no"?>
<!DOCTYPE svg PUBLIC "-//W3C//DTD SVG 1.1//EN" "http://www.w3.org/Graphics/SVG/1.1/DTD/svg11.dtd" >
<!--
2013-9-30: Created.
-->
<svg>
<metadata>
Created by iconfont
</metadata>
<defs>

<font id="iconfont" horiz-adv-x="1024" >
  <font-face
    font-family="iconfont"
    font-weight="500"
    font-stretch="normal"
    units-per-em="1024"
    ascent="896"
    descent="-128"
  />
    <missing-glyph />
    
    <glyph glyph-name="x" unicode="x" horiz-adv-x="1001"
d="M281 543q-27 -1 -53 -1h-83q-18 0 -36.5 -6t-32.5 -18.5t-23 -32t-9 -45.5v-76h912v41q0 16 -0.5 30t-0.5 18q0 13 -5 29t-17 29.5t-31.5 22.5t-49.5 9h-133v-97h-438v97zM955 310v-52q0 -23 0.5 -52t0.5 -58t-10.5 -47.5t-26 -30t-33 -16t-31.5 -4.5q-14 -1 -29.5 -0.5
t-29.5 0.5h-32l-45 128h-439l-44 -128h-29h-34q-20 0 -45 1q-25 0 -41 9.5t-25.5 23t-13.5 29.5t-4 30v167h911zM163 247q-12 0 -21 -8.5t-9 -21.5t9 -21.5t21 -8.5q13 0 22 8.5t9 21.5t-9 21.5t-22 8.5zM316 123q-8 -26 -14 -48q-5 -19 -10.5 -37t-7.5 -25t-3 -15t1 -14.5
t9.5 -10.5t21.5 -4h37h67h81h80h64h36q23 0 34 12t2 38q-5 13 -9.5 30.5t-9.5 34.5q-5 19 -11 39h-368zM336 498v228q0 11 2.5 23t10 21.5t20.5 15.5t34 6h188q31 0 51.5 -14.5t20.5 -52.5v-227h-327z" />
    

    
    <glyph glyph-name="yinsi" unicode="&#58900;" d="M860.144118 441.617391l-87.148849 0L772.995269 550.553453c0 144.161331-117.2801 261.446547-261.446547 261.446547-144.172587 0-261.452687-117.28624-261.452687-261.446547l0-108.935038-87.148849 0c-36.048007 0-65.361637-29.325909-65.361637-65.367777l0-522.882861c0-36.045961 29.319769-65.367777 65.361637-65.367777L860.144118-212c36.041868 0 65.361637 29.320793 65.361637 65.367777L925.505755 376.255755C925.505755 412.292506 896.185986 441.617391 860.144118 441.617391L860.144118 441.617391 860.144118 441.617391zM293.671483 550.553453c0 120.136148 97.747231 217.872123 217.877239 217.872123 120.124891 0 217.872123-97.735975 217.872123-217.872123l0-108.935038L293.671483 441.618415 293.671483 550.553453 293.671483 550.553453 293.671483 550.553453zM881.931331-146.632223c0-12.020778-9.765411-21.787212-21.786189-21.787212L162.953326-168.419436c-12.009522 0-21.787212 9.765411-21.787212 21.787212L141.166113 376.255755c0 12.009522 9.776667 21.787212 21.787212 21.787212L860.144118 398.042967c12.020778 0 21.786189-9.776667 21.786189-21.787212L881.930307-146.632223 881.931331-146.632223 881.931331-146.632223zM511.548722 223.740152c-36.108383 0-65.367777-29.254278-65.367777-65.355497 0-19.293415 8.509814-36.453237 21.787212-48.4075l0-60.534701c0-24.058952 19.515473-43.573401 43.580564-43.573401 24.058952 0 43.573401 19.514449 43.573401 43.573401l0 60.534701c13.277398 11.954263 21.788236 29.119201 21.788236 48.4075C576.910359 194.485875 547.651988 223.740152 511.548722 223.740152L511.548722 223.740152 511.548722 223.740152zM511.548722 223.740152"  horiz-adv-x="1024" />

    
    <glyph glyph-name="dengluwangye" unicode="&#58930;" d="M632.470588 896l391.529412 0 0-60.235294L632.470588 835.764706 632.470588 896zM963.764706 896l60.235294 0 0-391.529412-60.235294 0L963.764706 896zM0 896l391.529412 0 0-60.235294L0 835.764706 0 896zM0 896l60.235294 0 0-391.529412L0 504.470588 0 896zM0-67.76470600000005l391.529412 0 0-60.235294L0-128 0-67.76470600000005zM0 263.529412l60.235294 0 0-391.529412L0-128 0 263.529412zM632.470588-67.76470600000005l391.529412 0 0-60.235294L632.470588-128 632.470588-67.76470600000005zM963.764706 263.529412l60.235294 0 0-391.529412-60.235294 0L963.764706 263.529412zM0 414.117647l1024 0 0-60.235294L0 353.88235299999997 0 414.117647z"  horiz-adv-x="1024" />

    
    <glyph glyph-name="fasongzhuanhuan" unicode="&#58890;" d="M999.022 873.739c-4.050 0-7.729-1.206-11.069-2.906l-960.994-283.795c-14.964-8.688-23.899-23.745-25.755-39.791l-0.989-0.278 0.804-0.773c-1.020-10.574 1.020-21.55 6.709-31.443l242.18-193.979 580.576 382.857-491.347-421.473c-20.035-20.097-20.035-52.715 0-72.781l224.711-254.763c20.035-20.097 52.56-20.097 72.626 0l379.545 875.78c4.854 4.576 7.977 10.976 7.977 18.211 0.003 13.882-11.187 25.136-24.979 25.136zM954.249 778.388l-337.345-757.889c-31.722-42.729-22.292-28.414-51.911-1.391l-159.165 181.117c-33.824 33.824-29.156 44.182-6.524 62.361l505.446 496.479-664.085-373.581-167.915 125.619c-37.998 34.412-11.594 34.226 13.666 48.912l843.161 253.836c45.233 12.491 36.143-15.303 24.672-35.463zM238.377 172.676c-13.078 13.047-46.902 14.717-60.012 1.67v-248.611c13.109-12.645 46.933-11.007 60.012 1.607l106.945 85.273c12.955 13.047 12.955 34.164 0 47.212l-106.945 112.851zM306.736 33.824l-55.714-45.202c-6.214-5.967-22.199-6.74-28.383-0.742v127.413c6.185 6.185 22.199-7.822 28.383-14.006l55.714-58.279c6.122-6.215 6.122-3.030 0-9.183z"  horiz-adv-x="1024" />

    
    <glyph glyph-name="jia" unicode="&#58982;" d="M928 416.003 544 416.003 544 800.001c0 8.835-7.163 15.998-16 15.998l-31.998 0c-8.837 0-16.002-7.163-16.002-15.998l0-383.998L96 416.003c-8.837 0-16-7.163-16-16l0-32.004c0-8.835 7.163-15.998 16-15.998l384 0 0-384.002c0-8.835 7.165-15.998 16.002-15.998L528-47.999c8.837 0 16 7.163 16 15.998L544 352.001l384 0c8.837 0 16 7.163 16 15.998l0 32.004C944 408.839 936.837 416.003 928 416.003z"  horiz-adv-x="1024" />

    
    <glyph glyph-name="liwu-copy" unicode="&#58953;" d="M1028.725 512.383c0 40.487-33.208 73.402-74.222 73.402h-57.68c24.119 23.234 39.138 55.684 39.138 91.708 0.001 70.882-58.145 128.383-129.846 128.383-72.994 0-120.58-71.643-149.271-139.234-15.372 6.688-34.206 10.852-54.802 10.852-20.538 0-39.37-4.105-54.803-10.852-28.695 67.591-76.282 139.234-149.271 139.234-60.787 0-111.425-41.483-125.562-97.226 11.792-2.405 23.761-5.573 35.906-9.445 9.798 40.253 46.296 70.355 89.951 70.355 53.392 0 93.174-63.079 118.522-125.451-4.047-5.632-6.16-11.676-6.863-18.072 1.993 0.354 3.873 0.707 5.516 1.235-2.408-0.766-3.993-1.763-5.81-2.815-0.059-0.707-0.354-1.294-0.354-2.055 0-11.796 6.751-22.53 17.543-31.451-0.176-0.059-0.233-0.174-0.408-0.232-24.115-7.512-70.882-6.455-156.545 40.37-190.575 104.262-274.658 4.046-275.6 2.99-6.455-7.861-5.219-19.418 2.7-25.758 7.924-6.338 19.597-5.219 26.111 2.7 0.703 0.881 65.071 77.569 228.774-11.97 58.907-32.273 108.959-48.406 149.329-48.406 8.155 0 15.842 0.936 23.174 2.172 0.587-1.235 1.411-2.525 1.997-3.698h57.148v-146.746h-371.062v110.074c0 20.301 16.604 36.671 37.144 36.671h123.157c-12.557 5.812-25.404 12.087-38.668 19.361-12.378 6.75-24.406 12.439-36.143 17.369h-48.346c-41.014 0-74.227-32.916-74.227-73.402v-146.746h55.684v-330.164c0-40.549 33.211-73.407 74.226-73.407h593.672c41.014 0 74.227 32.858 74.227 73.407v329.985h55.858l-0.296 146.866zM583.558-1.203h-278.295c-20.481 0-37.083 16.371-37.083 36.671v330.17h315.378v-366.842zM694.806 622.399c0 7.745-2.698 15.078-7.508 21.707 25.346 62.372 65.071 125.451 118.522 125.451 51.166 0 92.767-41.136 92.767-91.711 0-50.518-41.601-91.706-92.767-91.706h-134.543c14.495 9.678 23.529 22.352 23.529 36.26v0zM602.042 604.090c-7.454 0-14.612 0.528-21.183 1.41-1.76 3.171-4.163 5.985-7.686 7.686-5.806 2.874-12.202 2.055-17.429-0.939-5.864 2.937-9.33 6.398-9.33 10.152 0 10.147 24.939 18.362 55.627 18.362 30.745 0 55.684-8.273 55.684-18.362 0-10.093-24.939-18.308-55.684-18.308v0zM935.962 35.47c0-20.301-16.603-36.671-37.083-36.671h-278.293v366.842h315.377v-330.17zM991.705 402.31h-371.061v146.745h333.92c20.534 0 37.142-16.371 37.142-36.671v-110.074zM991.705 402.31z"  horiz-adv-x="1140" />

    
    <glyph glyph-name="mine" unicode="&#58973;" d="M903.591-27.404c0 0-0.179 17.344-0.179 26.25 0 61.611-40.488 113.315-96.293 131.821l-0.857 1.653-181.888 52.487c-33.488 6.002-59.107 37.721-59.107 76.229 0 28.146 15.008 47.488 34.221 66.126v0c62.978 48.335 106.962 123.968 106.962 218.552 0 3.781-0.26 7.487-0.455 11.205 0.091 2.435 0.726 4.714 0.726 7.195 0 108.8-88.381 197.031-197.406 197.031-109.024 0-197.408-88.233-197.408-197.031 0-2.479 0.64-4.758 0.729-7.212-0.196-3.719-0.46-7.407-0.46-11.188 0-94.584 45.923-171.255 106.959-218.552v0c20.427-13.562 34.223-37.98 34.223-66.126 0-38.513-25.625-70.232-59.106-76.229l-181.886-52.487-0.857-1.653c-55.805-18.506-96.29-70.21-96.29-131.821 0-8.911-0.183-26.25-0.183-26.25h-49.879c0 0-14.546 130.741 94.263 187.875 107.39 56.393 243.522 58.17 243.522 101.066 0 33.977-46.826 43.645-80.255 95.205-16.769 25.871-57.044 64.468-61.618 199.966-4.911 145.311 100.148 253.212 248.948 253.212 160.761 0 248.588-127.361 248.588-253.212 0-125.845-50.75-201.406-88.66-233.645-37.903-32.235-79.151-65.982-21.244-90.75 40.016-17.115 184.87-44.080 247.499-95.737 62.627-51.656 63.611-141.014 59.574-163.98h-52.182zM903.591-27.404z"  horiz-adv-x="1024" />

    
    <glyph glyph-name="xiaomishu" unicode="&#58906;" d="M431.266772 214.030779c-8.78218-22.513273-30.567465-38.62065-56.33101-38.62065-33.67073 0-60.938584 27.170185-60.938584 60.696928 0 33.429074 27.267854 60.599259 60.938584 60.599259 25.763546 0 47.549837-16.010714 56.33101-38.62065l-44.200888-21.978609L431.266772 214.030779 431.266772 214.030779zM715.197418 213.836448c-8.781173-22.608929-30.615796-38.669988-56.330004-38.669988-33.720068 0-60.939591 27.170185-60.939591 60.649604 0 33.477405 27.267854 60.64759 60.939591 60.64759 25.715215 0 47.54883-16.011721 56.330004-38.62065l-44.24922-22.02694L715.197418 213.836448 715.197418 213.836448zM964.728339 219.270686c-6.986878-25.811877-23.919912-46.287185-45.607527-58.5623-16.545378-13.243753-37.602674-21.152951-60.454265-21.152951-1.163976 0-2.327952 0.096662-3.444604 0.340332-36.38936-159.432518-169.281005-267.871601-342.396284-267.871601-173.500922 0-306.345243 108.148089-342.928934 267.532275-18.338666 0.096662-35.467039 5.336569-50.022783 14.313081-28.722824 10.286489-52.108073 33.9144-60.599259 65.403178-11.401127 42.357255 4.220924 72.584387 24.161568 92.573363-0.387656 11.353802-0.484319 22.998599-0.241656 35.370377C80.573634 478.311775 119.872934 588.933817 196.873584 667.194099c36.679347 37.309666 81.317229 65.936835 132.455658 85.440484C337.285764 823.666331 414.720388 879.560347 508.799065 879.560347c94.077671 0 171.513302-55.894016 179.470831-126.924757 51.137421-19.504656 95.775304-48.130818 132.502982-85.440484 76.902981-78.260282 116.202281-189.076655 113.630659-320.609992 0.194332-9.7045 0.146-19.406987-0.096662-28.917156C957.014479 297.919631 977.294448 265.994865 964.728339 219.270686L964.728339 219.270686zM508.799065 847.19758c-70.061096 0-128.914391-35.417701-143.906122-82.7722 43.714556 12.422123 91.506049 18.776668 142.644477 18.776668l2.473953 0c51.187766 0 98.977245-6.355552 142.693815-18.776668C637.712449 811.779878 578.860162 847.19758 508.799065 847.19758L508.799065 847.19758zM882.828114 346.63143c2.426629 118.191915-31.779772 216.39284-98.928914 284.610303-64.722514 65.839165-159.432518 100.628561-273.88682 100.628561l-1.309977-0.049338-1.164983 0.049338c-114.407985 0-209.114968-34.788389-273.839496-100.628561-67.150149-68.217463-101.354536-166.418389-98.928914-283.979984-0.048331-1.357301-0.048331-2.619953-0.048331-3.928923 24.354893 6.40489 42.453917-12.03346 45.072864-13.876086 91.215055 30.178801 131.049019 126.486755 131.436675 127.506745 3.348949 8.297861 12.759435 12.323447 21.106634 9.024843 8.344179-3.347942 12.420109-12.71211 9.072167-21.007958-1.842627-4.658925-44.491882-108.634422-147.156395-144.780111-1.309977-21.153958-2.522284-43.181906-2.280628-51.041766l0.339325-18.291342c0-192.376266 131.533337-326.481225 319.884018-326.481225 0.241656 0 0.969645 0 1.2113-0.049338 146.818077 0.049338 259.235421 82.046225 301.300675 209.648625-5.289245-6.16122-10.674145-12.129115-16.351046-17.853341-35.272708-36.049027-77.435631-64.093201-125.275455-83.306864-33.477405-13.48843-69.187107-22.415604-106.643781-26.685866-4.1736-16.497047-25.618552-29.111488-51.673092-29.111488-29.06215 0-52.593398 15.623058-52.593398 34.933382 0 19.260987 23.530242 34.933382 52.593398 34.933382 20.475308 0 38.136331-7.85986 46.77251-19.214669 116.152943 12.663779 209.939619 71.614743 266.41663 161.518814 3.104272 19.698988 4.70625 40.173289 4.70625 61.375579 0 0 0 0 0.095655 2.862616-0.533657 0.534664-1.066307 1.066307-1.503301 1.650309-43.957219 56.815329-108.487414 70.448753-176.802546 84.859503-34.011062 7.180203-69.236445 14.603068-103.586833 27.606172C426.268522 394.616248 360.186693 503.153001 357.42074 507.762588c-4.560249 7.666535-2.087303 17.612692 5.627563 22.172941 7.71386 4.60858 17.660016 2.086296 22.269603-5.580239 0.631326-1.018983 63.366219-103.586833 177.044202-146.526076 32.023442-12.129115 65.985166-19.261994 98.833259-26.20054 62.783224-13.245767 127.458414-26.879191 176.994864-75.591997 0.534664 0.533657 1.068321 1.066307 1.650309 1.551633 0.921313 15.623058 1.891965 28.092505 2.717623 32.798755 0.095655 0.631326 0.241656 1.261645 0.387656 1.892972-0.340332 1.2113 5.580239 31.58544 39.930626 31.58544C882.877452 344.787797 882.828114 345.70911 882.828114 346.63143L882.828114 346.63143z"  horiz-adv-x="1024" />

    
    <glyph glyph-name="zhuanhuan2" unicode="&#59076;" d="M811.659264 272.683008 945.71008 138.745856 704.16896 138.745856 205.031424 669.717504 0 669.717504 0 628.87424 187.336704 628.87424 686.475264 97.902592 945.71008 97.902592 812.017664-35.6352 840.937472-64.512 1024 118.36416 840.578048 301.559808ZM187.336704 138.745856 0 138.745856 0 97.902592 205.031424 97.902592 403.073024 308.580352 373.235712 336.539648ZM704.208896 628.87424 945.71008 628.87424 812.017664 495.326208 840.937472 466.449408 1024 649.315328 840.578048 832.512 811.659264 803.634176 945.71008 669.717504 686.475264 669.717504 487.555072 457.314304 517.433344 429.43488Z"  horiz-adv-x="1024" />

    
    <glyph glyph-name="guanzhu" unicode="&#58908;" d="M740.693333 779.946667 293.546667 779.946667c-105.813333 0-187.733333-81.92-187.733333-187.733333L105.813333 145.066667c0-105.813333 81.92-187.733333 187.733333-187.733333l447.146667 0c102.4 0 187.733333 85.333333 187.733333 187.733333L928.426667 592.213333C928.426667 698.026667 846.506667 779.946667 740.693333 779.946667zM894.293333 145.066667c0-85.333333-68.266667-153.6-153.6-153.6L293.546667-8.533333c-85.333333 0-153.6 68.266667-153.6 153.6L139.946667 592.213333c0 85.333333 68.266667 153.6 153.6 153.6l447.146667 0c85.333333 0 153.6-68.266667 153.6-153.6L894.293333 145.066667zM546.133333 612.693333 512 612.693333 512 384 283.306667 384 283.306667 349.866667 512 349.866667 512 124.586667 546.133333 124.586667 546.133333 349.866667 774.826667 349.866667 774.826667 384 546.133333 384Z"  horiz-adv-x="1024" />

    
    <glyph glyph-name="sousuo" unicode="&#59000;" d="M704 246.399999C733.19584 281.546369 755.044838 320.805418 768.57207 364.02001 779.087686 397.613567 784.574477 433.597451 784.574477 471.897844 784.574477 670.974016 623.390412 832.332634 424.529304 832.332634 225.702689 832.332634 64.480433 670.974016 64.480433 471.897844 64.480433 272.85867 225.702689 111.460591 424.529304 111.460591 512.02356 111.460591 587.197878 140.052477 649.599976 191.999975L878.203494-36.409455C893.33415-51.527269 918.125242-51.215896 932.601805-36.69134L932.601805-36.69134C947.514509-21.729207 947.275341 2.747411 932.249568 17.796484L704 246.399999ZM115.199997 473.600565C115.199997 642.993773 252.987407 780.799981 422.400584 780.799981 591.77617 780.799981 729.6 642.993773 729.6 473.600565 729.6 304.205009 591.77617 166.399978 422.400584 166.399978 252.988582 166.399978 115.199997 304.205009 115.199997 473.600565L115.199997 473.600565Z"  horiz-adv-x="1024" />

    
    <glyph glyph-name="shangchuanjianli" unicode="&#58915;" d="M315.314 174.93c-10.069 0-18.33 7.954-18.33 18.219 0 10.007 8.519 17.963 18.33 17.963h241.122c10.067 0 18.331-7.954 18.331-17.963 0-10.265-8.262-18.219-18.331-18.219h-241.122zM607.55 242.933v0c-11.875-12.319-31.493-12.319-43.112 0-11.875 11.546-11.875 31.049 0 42.597l131.147 130.357c11.618 12.319 31.238 12.319 42.854 0l0.775-0.512 131.145-130.103c11.618-11.547 11.618-31.049 0-42.598-12.391-12.317-31.753-12.317-43.629 0l-78.997 78.524v-154.736c0-16.938-14.198-30.538-30.721-30.538-16.782 0-30.462 13.857-30.462 30.538v154.736l-78.999-78.266zM226.764 779.508h362.201c8.519 0 16.522-3.080 21.684-8.725l221.244-219.916c5.939-5.902 9.037-13.857 9.037-21.299v-85.451c0-16.679-13.942-30.536-30.72-30.536-16.525 0-30.464 14.112-30.464 30.536v66.72h-139.149c-18.846 0-36.658 8.212-49.309 20.785l-0.775 0.771c-12.133 12.832-19.62 29.51-19.62 47.987v138.312h-344.13c-5.162 0-10.327-2.053-14.456-6.159-3.616-3.337-5.939-8.724-5.939-14.627v-627.416c0-5.39 2.063-10.522 5.939-14.627 3.614-3.338 9.294-5.902 14.456-5.902h532.329c5.678 0 10.585 2.565 14.716 5.902 3.873 4.105 5.938 9.236 5.938 14.627v46.447c0 16.936 14.2 30.792 30.464 30.792 17.038 0 30.721-14.113 30.721-30.792v-46.447c0-22.325-9.294-42.597-24.268-57.224l-0.515-0.771c-14.974-14.368-34.852-23.607-57.055-23.607h-532.329c-22.202 0-42.597 9.496-57.311 24.378h-0.518c-14.714 14.628-24.008 34.899-24.008 57.226v627.414c0 22.581 9.294 43.109 24.008 58.252 14.974 14.37 35.886 23.351 57.829 23.351v0zM748.767 547.531v0l-140.956 140.108v-107.263c0-8.725 3.097-16.168 8.779-22.583l0.774-0.771c5.939-5.647 14.198-9.495 23.235-9.495l108.17 0.001zM296.983 449.761c0 10.009 8.519 18.219 18.33 18.219h291.208c10.067 0 18.328-8.469 18.328-18.219 0-9.495-8.261-17.963-18.328-17.963h-291.208c-10.069 0-18.33 8.468-18.33 17.963zM315.314 303.235v0c-10.069 0-18.33 8.212-18.33 18.219 0 10.264 8.519 18.219 18.33 18.219h192.072c10.326 0 18.328-7.7 18.328-18.219 0-10.263-8.002-18.219-18.328-18.219h-192.072z"  horiz-adv-x="1024" />

    
    <glyph glyph-name="shezhi" unicode="&#58948;" d="M640.516 7.05C640.516 7.05 640.516 7.05 640.516 7.05c-13.9 0.002-27.404 6.01-36.132 16.066-11.886 13.62-49.55 49.036-80.378 49.036-30.616 0-68.862-35.622-79.844-48.1-8.706-9.886-22.12-15.79-35.882-15.79-6.556 0-12.742 1.314-18.39 3.908l-0.988 0.452-93.706 54.758-0.93 0.68c-17.06 12.484-23.554 36.89-15.102 56.782 0.064 0.152 8.642 20.834 8.642 39.696 0 57.234-44.558 103.804-99.332 103.804l-3.32 0c-0.202-0.008-0.402-0.01-0.604-0.01-15.69 0-28.462 14.56-32.542 37.104-0.328 1.804-7.998 44.562-7.998 78.244 0 33.69 7.668 76.446 7.994 78.248 4.134 22.826 17.186 37.492 33.15 37.096l3.322 0c54.772 0 99.332 46.566 99.332 103.804 0 18.854-8.574 39.534-8.662 39.742-8.442 19.87-1.906 44.274 15.224 56.714l0.968 0.706 98.898 56.764 1.028 0.458c5.57 2.482 11.668 3.738 18.128 3.738 13.73 0 27.174-5.774 35.958-15.448 11.704-12.808 48.704-46.116 78.65-46.116 29.662 0 66.438 32.652 78.1 45.232 8.732 9.478 22.078 15.152 35.678 15.152 6.59 0 12.802-1.302 18.462-3.872l0.998-0.454 95.52-55.458 0.944-0.688c17.088-12.464 23.598-36.874 15.138-56.776-0.062-0.152-8.642-20.836-8.642-39.694 0-57.24 44.562-103.804 99.332-103.804l3.32 0c15.944 0.37 29.016-14.268 33.146-37.096 0.33-1.802 8-44.558 8-78.246 0-33.684-7.67-76.442-8-78.246-4.13-22.826-17.202-37.436-33.148-37.094l-3.318 0c-54.77 0-99.332-46.57-99.332-103.804 0-18.856 8.574-39.53 8.66-39.738 8.44-19.86 1.916-44.264-15.188-56.72l-0.958-0.698-97.126-56.098-1.01-0.458C653.016 8.318 646.936 7.05 640.516 7.05L640.516 7.05zM637.564 54.874c0.436-0.296 1.66-0.804 2.95-0.804 0.056 0 0.104 0 0.15 0.004l90.744 52.418c-2.19 5.314-12.208 31.124-12.208 58.044 0 80.51 60.684 146.488 136.756 150.62 1.098 6.316 7.04 41.854 7.04 68.526 0 26.664-5.94 62.194-7.038 68.528-76.074 4.128-136.758 70.108-136.758 150.62 0 26.958 10.048 52.8 12.22 58.076l-89.276 51.834c-0.102 0.008-0.226 0.012-0.372 0.012-1.522 0-2.946-0.58-3.416-0.91-1.496-1.608-14.44-15.322-33.028-28.988-27.512-20.23-53.536-30.486-77.334-30.486-24.034 0-50.262 10.458-77.954 31.086-18.702 13.93-31.702 27.906-33.204 29.546-0.476 0.336-1.916 0.932-3.45 0.932-0.12 0-0.226-0.002-0.318-0.008l-92.468-53.076c2.216-5.384 12.196-31.146 12.196-58.016 0-80.51-60.682-146.49-136.758-150.62-1.096-6.324-7.04-41.862-7.04-68.528 0-26.664 5.942-62.194 7.042-68.528 76.076-4.128 136.756-70.108 136.756-150.618 0-27.01-10.084-52.898-12.234-58.108l87.518-51.142c0.056-0.004 0.122-0.004 0.194-0.004 1.28 0 2.494 0.492 2.922 0.78 1.636 1.838 14.71 16.296 33.534 30.714 28.066 21.496 54.736 32.392 79.27 32.392 24.77 0 51.636-11.104 79.87-33.012C622.808 71.462 635.932 56.736 637.564 54.874L637.564 54.874zM524.326 245.962c-72.942 0-132.284 62.018-132.284 138.242 0 76.222 59.342 138.238 132.284 138.238 72.944 0 132.286-62.014 132.286-138.238C656.612 307.98 597.27 245.962 524.326 245.962L524.326 245.962zM524.326 475.422c-48.13 0-87.29-40.92-87.29-91.216 0-50.298 39.16-91.218 87.29-91.218 48.134 0 87.292 40.92 87.292 91.218C611.62 434.502 572.462 475.422 524.326 475.422L524.326 475.422z"  horiz-adv-x="1024" />

    
    <glyph glyph-name="follow" unicode="&#59139;" d="M189.5 480c-5 0-9 4-9 9 0 93.9 76.4 170.3 170.3 170.3 5 0 9-4 9-9s-4-9-9-9c-84 0-152.4-68.4-152.4-152.4 0.1-4.9-3.9-8.9-8.9-8.9zM512.2-13c-79.9 0-348 305-401 366.2-0.5 0.6-0.9 1.1-1.3 1.7-30 44.7-45.9 96.9-45.9 151 0 148.9 120.6 270 268.8 270 66.9 0 130-24.4 179.4-69 49.4 44.7 112.4 69 179.4 69 148.2 0 268.8-121.1 268.8-270 0-54.1-15.9-106.3-45.9-150.9-0.4-0.6-0.9-1.2-1.3-1.7-53-61.2-321.2-366.3-401-366.3zM139.1 375.8c150.4-173.6 330.9-353 373.1-353s222.7 179.3 373.1 353c25.6 38.5 39.2 83.4 39.2 130-0 129.1-104.5 234.2-232.9 234.2-63.1 0-122.3-25.1-166.5-70.6-6.8-6.9-18.9-6.9-25.7 0-44.3 45.5-103.5 70.6-166.6 70.6-128.4 0-232.9-105-232.9-234.1 0-46.6 13.5-91.5 39.2-130.1zM899.6 364.9v0z"  horiz-adv-x="1024" />

    
    <glyph glyph-name="qianbao" unicode="&#58945;" d="M927.243841 280.639934c-32.455179 121.140011-101.94995 214.659965-210.593346 278.265608-12.490475 7.309476-25.689079 13.398148-38.573527 20.063965 0.080841 0.185218 0.14224 0.596588 0.38067 0.816598 2.163269 2.089591 4.372587 4.134157 6.550183 6.207375 22.36231 21.373797 42.436508 46.096874 52.928466 75.264171 5.084808 14.136975 6.344498 20.290115 9.874905 33.414017 6.572696 41.452087-0.981351 66.651003-25.612331 87.597057-33.278941 28.313859-71.046103 31.661094-110.932532 15.041578-2.77009-1.150196-4.607948-1.990331-7.363711 0.620124-51.345412 48.570205-133.777843 49.022507-185.475272 1.067308-2.411933-2.241041-4.158716-2.805906-7.29208-1.364067-20.97573 9.655917-42.903136 11.722996-65.411779 7.070023-42.654472-8.81783-77.932953-45.1145-71.671343-94.685499 5.432733-43.005466 22.095227-80.220043 50.820456-112.300692 5.898337-6.588045 12.164041-12.844539 18.509563-19.504216-1.578961-0.768503-3.14462-1.565658-4.743024-2.299369C191.89396 508.789121 92.764242 362.936265 81.15995 197.034794c-3.210112-45.876863-0.523933-91.301426 10.991332-136.281873 18.135032-70.863954 80.447217-123.948987 155.266249-123.776048 176.311565 0.404206 352.630293-0.041956 528.943904 0.227174 56.639998 0.088004 100.238982 25.51921 131.880633 71.825862 16.078187 23.536043 23.596418 50.26787 27.976168 78.266551C946.406273 152.426831 944.288029 216.992335 927.243841 280.639934L927.243841 280.639934zM891.041314 118.662843c-3.78521-25.505907-7.892761-52.253084-21.814842-73.693396-27.400047-42.187845-79.889515-65.346287-128.942721-65.429175-152.698774-0.243547-305.402665 0.159636-458.100416-0.208754-64.797795-0.155543-125.913734 37.06722-141.623531 101.614306-9.972119 40.981367-8.893554 92.242867-6.111185 134.031623C144.503627 366.098281 276.940938 508.606972 404.033521 569.754634c1.382487 0.661056-36.625152 35.06461-41.735543 41.063231-24.883737 29.221532-40.420595 52.889581-45.12064 92.063789-5.77861 48.093345 29.060873 62.284555 50.142004 66.871013 19.498076 4.241604 60.878532-17.22736 62.969147-15.184841 44.773739 43.683918 116.170836 43.267433 160.632467-0.972141 2.391467-2.378164 3.982708-1.6158 6.377244-0.566912 34.549887 15.144932 63.763233 24.472368 92.592838-1.314948 21.332864-19.081591 21.824051-33.254382 16.59598-63.219857-3.176342-12.432147-22.903639-45.674249-30.436196-55.982012-27.835975-38.064944-55.081503-62.359256-56.960293-64.260559-0.205685-0.202615 59.499116-29.131481 69.478398-36.983309 92.157933-72.483848 154.286945-128.539538 182.393073-238.886739C885.725238 234.40389 899.86426 177.990043 891.041314 118.662843L891.041314 118.662843zM511.037581 380.025479l-52.221362 57.876152c-7.249101 8.03807-12.332886 14.065344-15.231913 18.083867-5.79703 5.625114-13.416568 10.246365-22.848381 13.862729-9.422603 3.616364-17.401322 1.407046-23.930015-6.627954-5.801123-8.842389-7.250124-17.486256-4.356214-25.925463 2.90312-8.438183 6.16542-15.0733 9.794064-19.891026l16.316617-16.885576c7.977695-9.642614 16.681938-20.092617 26.113751-31.345915 10.874675-12.861936 22.845311-26.52819 35.898605-40.99774l-1.084705-25.319665L405.509129 302.854888c-6.528694 0-12.147668-2.809999-16.866133-8.441253-4.712325-5.622044-7.070023-11.653411-7.070023-18.086937 0-6.426363 2.177596-12.057617 6.52767-16.875343 4.349051-4.824889 10.151197-7.237845 17.406438-7.237845l73.979922 0 0-42.201148-73.979922 0c-6.528694 0-12.147668-2.210341-16.866133-6.630001-4.712325-4.421706-7.070023-10.253528-7.070023-17.486256-0.720408-6.433526 1.274016-11.853979 5.985318-16.276708 4.714372-4.423753 10.700713-6.636141 17.950837-6.636141l73.979922 0 0-24.113187c0.723477-11.255345 3.989871-19.087731 9.794064-23.508413 5.79396-4.420683 13.050224-6.635117 21.75549-6.635117 8.703219-0.800225 15.776312 2.214435 21.213137 9.042957 5.442966 6.831592 8.16496 13.868869 8.16496 21.100574l0 24.119327 76.151377 0c7.245008 0 13.234419 1.812275 17.945721 5.428639 4.721535 3.616364 6.708795 9.444093 5.990434 17.485233 0 16.876366-10.157337 25.317619-30.467919 25.317619l-69.618591 0 1.084705 40.999786 70.719668 1.202385c10.148128-0.804319 17.403369 1.406023 21.754466 6.630001 4.352121 5.223978 6.529717 11.455913 6.529717 18.688641 0 6.433526-2.359744 12.260232-7.075139 17.485233-4.717442 5.223978-12.146645 7.841595-22.302959 7.841595l-70.710458 0 0 22.904663c12.331863 12.861936 23.572882 25.325805 33.719986 37.381375 8.704243 9.645684 17.407462 19.49296 26.111704 29.53671 8.704243 10.051937 15.229866 17.086144 19.581987 21.103644 16.682961 16.07921 20.310581 30.140461 10.880815 42.200124-5.077645 7.238868-11.607362 10.852162-19.585057 10.852162-7.973602 0-15.22475-3.218298-21.757536-9.646708-3.622504-3.215228-9.78997-9.04091-18.494213-17.48114-8.703219-8.444323-17.405415-17.083074-26.112728-25.926486C534.605346 404.539802 523.363304 392.885368 511.037581 380.025479L511.037581 380.025479 511.037581 380.025479z"  horiz-adv-x="1024" />

    
    <glyph glyph-name="wodexingqiuxuanzhong-copy" unicode="&#58880;" d="M1010.124 450.215c-5.392 28.898-29.103 51.516-70.456 67.236-12.649 4.812-26.849-1.515-31.676-14.117-4.833-12.609 1.511-26.735 14.179-31.55 23.265-8.844 37.731-19.962 39.702-30.509 8.43-45.186-154.575-143.26-429.189-194.061-124.432-23.024-243.675-30.899-335.726-22.204-88.261 8.345-131.302 31.039-134.81 49.82-2.069 11.112 8.403 27.525 28.744 45.027 10.256 8.826 11.381 24.273 2.515 34.476-8.866 10.217-24.356 11.336-34.616 2.503-35.363-30.446-50.468-61.034-44.892-90.93 9.027-48.405 70.719-79.377 178.418-89.562 4.288-0.41 8.711-0.726 13.106-1.057 66.833-100.785 181.478-167.35 311.821-167.35 181.052 0 331.942 128.318 366.191 298.613 84.193 43.139 136.14 92.992 126.689 143.665zM200.522 263.362c23.040-2.161 48.299-3.275 75.073-3.275 75.227 0 161.758 8.651 250.216 25.023 140.483 25.977 235.745 61.338 290.914 86.414 32.465 14.749 55.978 28.203 72.688 39.437-15.815 190.99-176.339 341.101-372.167 341.101-206.308 0-373.554-166.576-373.554-372.060 0-38.815 6.103-76.18 17.201-111.332 11.458-2.049 24.59-3.886 39.629-5.308zM659.317 564.614c9.17 9.924 24.692 10.559 34.676 1.41 26.481-24.301 47.34-53.15 62-85.744 12.354-26.796 20.412-57.965 22.4-90.771-2.781 27.243-11.138 14.194-24.375 11.28-1.6-0.368-3.437-0.579-5.323-0.579-11.252 0-21.397 7.772-23.931 19.188-6.041 26.71-16.346 50.275-30.286 71.213 4.794-3.805-12.177 19.668-33.748 39.452-9.961 9.155-10.598 24.622-1.413 34.551zM524.428 611.971c1.858 13.371 14.202 22.749 27.671 20.855 33.692-4.737 64.1-15.193 91.496-30.413-12.939 7.037-7.106-7.311-12.387-19.745-3.962-9.317-13.052-14.924-22.606-14.924-3.196 0-6.432 0.627-9.554 1.95-22.168 9.59-47.912 15.586-74.938 16.553 7.834 0.012-1.546 12.35 0.318 25.724z"  horiz-adv-x="1075" />

    
    <glyph glyph-name="xiaoxi" unicode="&#58910;" d="M160.512-39.3856c35.85536 9.5232 80.83456 21.4272 135.60832 35.87328l11.57376 3.05152 10.71104-5.34272c77.9264-38.8736 164.53632-53.23264 251.3408-41.62816 58.24 7.7824 113.13152 26.71872 163.2896 56.32 48.45056 28.58496 90.37568 65.81248 124.69504 110.72768 34.31936 44.91264 59.22304 95.14752 74.08128 149.41184 15.38048 56.17408 19.23328 114.12224 11.44832 172.3648-7.78496 58.24512-26.72128 113.14432-56.31488 163.30752-28.58752 48.45568-65.81248 90.38592-110.72 124.70784-44.90752 34.31936-95.13984 59.2256-149.39904 74.0864-56.1664 15.38048-114.10944 19.23072-172.34944 11.44576-58.23744-7.7824-113.13152-26.72128-163.2896-56.31744-48.45056-28.58752-90.37824-65.8176-124.6976-110.73024-34.3168-44.91008-59.22304-95.14752-74.07872-149.41184-15.37792-56.17664-19.23072-114.1248-11.44832-172.3648 8.74752-65.43104 32.47616-128.58112 68.8256-183.24992l7.19872-10.82624-2.4576-12.76672c-8-41.59232-15.6672-81.42592-22.71488-118.02368-4.16512-21.6192-7.01952-36.4416-9.82528-50.88768 7.97952 2.13248 21.17632 5.64736 38.52032 10.2528zM17.97888 317.69856c-8.90624 66.65216-4.48512 133.16608 13.14304 197.56032 17.024 62.16704 45.59616 119.80544 84.8768 171.2128C155.2896 737.8816 203.392 780.5952 258.89536 813.34528c57.4976 33.92768 120.51456 55.6672 187.1616 64.576 66.65216 8.9088 133.16352 4.48768 197.55264-13.1456 62.16192-17.02144 119.79264-45.59872 171.19744-84.88448s94.11328-87.39072 126.86592-142.90432c33.92256-57.50272 55.65696-120.52224 64.56576-187.1744 8.9088-66.65728 4.48768-133.1712-13.14304-197.56288-17.01888-62.16704-45.5936-119.80288-84.8768-171.2128-39.2832-51.40992-87.3856-94.12352-142.89152-126.8736-57.4976-33.93024-120.512-55.6672-187.1616-64.576-95.35232-12.7488-190.74048 1.9072-277.1968 42.46272a79905.28 79905.28 0 0 1-124.1472-32.8448 25085.8496 25085.8496 0 0 1-44.06272-11.73504c-5.4144-1.40032-13.65504-2.42432-22.08-2.12992-15.37024 0.5376-29.66272 5.06112-41.15968 16.14592-11.37152 10.96192-13.77792 23.6288-13.06368 39.1424 0.31488 6.84032 1.41824 13.7728 2.3296 17.4208l10.63424 55.21664c6.336 32.90368 13.17376 68.4288 20.30592 105.49504-37.66272 60.08576-62.30272 128.32-71.744 198.9376zM748.76928 368.31232a21.632 21.632 0 1 1-43.264 0 21.632 21.632 0 0 1 43.264 0z m63.5392 0c0-47.03744-38.1312-85.1712-85.1712-85.1712-47.04 0-85.1712 38.13376-85.1712 85.1712 0 47.04 38.1312 85.1712 85.1712 85.1712 47.04 0 85.1712-38.1312 85.1712-85.1712zM329.37728 368.31232a21.632 21.632 0 1 1-43.264 0 21.632 21.632 0 0 1 43.264 0z m63.5392 0c0-47.03744-38.1312-85.1712-85.1712-85.1712-47.03744 0-85.1712 38.13376-85.1712 85.1712 0 47.04 38.13376 85.1712 85.1712 85.1712 47.04 0 85.1712-38.1312 85.1712-85.1712zM539.07456 368.31232a21.632 21.632 0 1 1-43.264 0 21.632 21.632 0 0 1 43.264 0z m63.5392 0c0-47.03744-38.1312-85.1712-85.1712-85.1712-47.04 0-85.1712 38.13376-85.1712 85.1712 0 47.04 38.1312 85.1712 85.1712 85.1712 47.04 0 85.1712-38.1312 85.1712-85.1712z"  horiz-adv-x="1024" />

    
    <glyph glyph-name="daojubao" unicode="&#58889;" d="M765.3-84.8H242.8C144.2-84.8 64-4.6 64 93.9V547.7c0 98.6 80.2 178.8 178.8 178.8 22.8 0 41.3-18.5 41.3-41.3 0-22.8-18.5-41.3-41.3-41.3-53.1 0-96.3-43.2-96.3-96.3v-453.8c0-53.1 43.2-96.3 96.3-96.3h522.5c53.1 0 96.3 43.2 96.3 96.3V547.7c0 53.1-43.2 96.3-96.3 96.3-22.8 0-41.3 18.5-41.3 41.3 0 22.8 18.5 41.3 41.3 41.3 98.6 0 178.8-80.2 178.8-178.8V94c0-98.6-80.2-178.8-178.8-178.8zM463.5 685.2h81.1-81.1zM544.6 644h-81.1c-22.8 0-41.3 18.5-41.3 41.3 0 22.8 18.5 41.3 41.3 41.3h81.1c22.8 0 41.3-18.5 41.3-41.3 0-22.9-18.5-41.3-41.3-41.3zM669 573.1c-22.8 0-41.3 18.5-41.3 41.3 0 98.8-56.6 182.2-123.7 182.2-67 0-123.7-83.5-123.7-182.2 0-22.8-18.5-41.3-41.3-41.3-22.8 0-41.3 18.5-41.3 41.3 0 146 92.5 264.7 206.2 264.7 113.7 0 206.2-118.8 206.2-264.7 0.1-22.8-18.4-41.3-41.1-41.3z"  horiz-adv-x="1024" />

    
    <glyph glyph-name="tongzhi" unicode="&#58894;" d="M622.592 814.08c-13.312 0-25.6-4.096-36.864-11.264l-348.16-230.4c-14.336-9.216-31.744-15.36-49.152-15.36h-69.632C80.896 558.08 51.2 528.384 51.2 491.52v-202.752c0-36.864 29.696-66.56 66.56-66.56h69.632c17.408 0 34.816-5.12 49.152-15.36l349.184-230.4c11.264-7.168 23.552-11.264 36.864-11.264 36.864 0 66.56 29.696 66.56 66.56V747.52c1.024 36.864-29.696 66.56-66.56 66.56zM102.4 288.768V491.52c0 8.192 7.168 15.36 15.36 15.36h66.56v-233.472h-66.56c-8.192 0-15.36 7.168-15.36 15.36z m535.552-256c0-9.216-8.192-15.36-15.36-15.36-3.072 0-6.144 1.024-8.192 3.072L265.216 249.856c-8.192 5.12-16.384 10.24-25.6 13.312V517.12c9.216 3.072 17.408 8.192 25.6 13.312l349.184 230.4c3.072 2.048 5.12 3.072 8.192 3.072 7.168 0 15.36-6.144 15.36-15.36v-715.776z m159.744 477.184c-11.264 9.216-27.648 7.168-35.84-4.096-9.216-11.264-7.168-27.648 4.096-35.84 27.648-22.528 44.032-56.32 44.032-92.16 0-34.816-15.36-67.584-41.984-90.112-11.264-9.216-12.288-25.6-3.072-35.84 5.12-6.144 12.288-9.216 19.456-9.216 6.144 0 11.264 2.048 16.384 6.144 38.912 31.744 60.416 79.872 60.416 130.048s-22.528 98.304-63.488 131.072zM867.328 624.64c-11.264 8.192-27.648 5.12-35.84-7.168-8.192-11.264-5.12-27.648 7.168-35.84 66.56-45.056 106.496-119.808 106.496-199.68 0-84.992-43.008-161.792-115.712-205.824-12.288-7.168-16.384-23.552-8.192-34.816 5.12-8.192 13.312-12.288 21.504-12.288 4.096 0 9.216 1.024 13.312 4.096 88.064 53.248 140.288 146.432 140.288 249.856-1.024 96.256-49.152 186.368-129.024 241.664z"  horiz-adv-x="1024" />

    
    <glyph glyph-name="down-trangle" unicode="&#58896;" d="M530.877 222.173l285.857 285.857c10.929 10.929 10.929 29.334 0 40.837-10.929 10.929-29.334 10.929-40.837 0l-265.725-265.725-264.573 264.573c-10.929 10.929-29.334 10.929-40.837 0-10.929-10.929-10.929-29.334 0-40.837l284.703-284.703c12.077-11.502 29.908-11.502 41.418 0z"  horiz-adv-x="1024" />

    
    <glyph glyph-name="guanzhu1" unicode="&#58888;" d="M589.335554-128a100.243208 100.243208 0 0 0-65.211979 24.52186l-5.119949 4.850478-15.090376 14.820904-60.361501 59.014147c-55.241553 53.894198-113.177816 107.788396-168.419369 164.646775a1873.362319 1873.362319 0 0 0-201.025358 228.511399 353.006996 353.006996 0 0 0-74.104522 199.678003c0 117.758822 53.894198 208.840017 159.526826 274.051996a331.718788 331.718788 0 0 0 175.964556 53.894198 316.628413 316.628413 0 0 0 105.632628-17.246143 303.693805 303.693805 0 0 0 148.209044-107.788396l2.425239-4.850478 5.119949 4.850478c17.515614 17.246143 30.180751 34.492287 47.696365 49.04372a300.190682 300.190682 0 0 0 201.294829 75.990819 350.312286 350.312286 0 0 0 170.844607-46.618481 321.47889 321.47889 0 0 0 163.29942-223.660921 319.862065 319.862065 0 0 0-55.241553-238.212355 1363.523207 1363.523207 0 0 0-158.448942-188.629693c-98.08744-105.632628-203.450597-201.5643-301.538037-292.376023a112.908345 112.908345 0 0 0-75.451877-34.492287zM333.068643 845.598685a296.418088 296.418088 0 0 1-150.903754-44.193242c-90.542252-56.588908-134.735495-132.579727-133.118669-233.361877A279.710887 279.710887 0 0 1 111.832961 396.121075a1751.561432 1751.561432 0 0 1 195.905409-223.660922c57.936263-57.936263 120.723003-115.603054 173.539317-165.724658l55.241553-53.894198c5.119949-4.850478 20.210324-17.246143 20.210324-17.246143a50.121604 50.121604 0 0 1 32.60599-12.395666 62.786741 62.786741 0 0 1 40.151178 17.246143c98.08744 88.386485 201.025358 186.743396 299.112798 289.950785a1560.237029 1560.237029 0 0 1 153.328993 180.545563 265.159454 265.159454 0 0 1 47.696365 203.989539 267.854164 267.854164 0 0 1-138.238618 191.593874 282.405597 282.405597 0 0 1-145.783805 39.342764 247.104897 247.104897 0 0 1-168.419368-63.864624c-15.090375-14.820904-30.180751-29.372338-45.271127-46.618482l-2.425238-2.425239a46.618481 46.618481 0 0 0-35.3007-17.246143A57.666792 57.666792 0 0 0 556.460093 732.959811a278.633003 278.633003 0 0 1-130.69343 98.356912 346.270222 346.270222 0 0 1-92.69802 14.281962zM209.920401 464.836177a31.258635 31.258635 0 0 0-20.210324 9.700956 149.556399 149.556399 0 0 0-26.947099 90.811723 161.682594 161.682594 0 0 0 163.299419 159.796297 152.52058 152.52058 0 0 0 67.90669-14.820905 25.330273 25.330273 0 0 0 12.665136-14.820904 26.947099 26.947099 0 0 0 0-19.671382 24.252389 24.252389 0 0 0-22.635563-14.820905 15.359846 15.359846 0 0 0-9.970427 2.425239 104.015802 104.015802 0 0 1-47.696365 9.700956 111.291519 111.291519 0 0 1-113.177815-110.483106 105.902099 105.902099 0 0 1 20.210324-61.439386 21.288208 21.288208 0 0 0 2.425239-17.246143c-2.425239-4.850478-5.119949-12.395666-9.970427-14.820904a36.378584 36.378584 0 0 0-15.090375-4.850478z"  horiz-adv-x="1186" />

    
    <glyph glyph-name="wodexingqiuweixuanzhong" unicode="&#58881;" d="M157.04394803799812 234.6636705045148c3.37238387432446 0 6.8074637306569095 0.5477648954382196 10.183147393508104 1.6960913027424387 16.453845523815914 5.593141552817965 25.230183075425455 23.422998892282905 19.61614286193816 39.81854815212648-12.334609512940148 35.95999543486286-18.5910085596321 73.66997871840488-18.5910085596321 112.04761921385652 0 191.0676550636098 156.04809935886675 346.52289241717295 347.86370648853676 346.52289241717295 179.21591460508205 0 327.9890801920043-133.72173018696915 346.06092202342984-311.0490658252493 1.7653868618039004-17.24029512268806 17.26119378335739-29.776191735759117 34.50808848309892-28.036103252660197 17.29969131616931 1.7510877781880434 29.907083347319652 17.142401396394888 28.150495921587048 34.377196871538374-21.35843120405491 209.46617595918224-197.06887046423415 367.43145245208285-408.7195064281157 367.43145245208285-226.53378214897117 0-410.83687073277156-183.58263475546303-410.83687073277156-409.2463726628847 0-45.29179738847302 7.38712658185358-89.81804383874324 21.963392433956557-132.32261985163305 4.472313383236548-13.04186418717062 16.70242959283005-21.23963881709241 29.801490114464098-21.23963881709241zM693.971 572.477c-9.983 9.154-25.503 8.515-34.672-1.41-9.184-9.931-8.549-25.396 1.414-34.55 21.566-19.779 38.538-43.251 50.456-69.763a211.675 211.675 0 0 0 13.57-40.902c2.532-11.41 12.677-19.185 23.938-19.185 1.75 0 3.532 0.19 5.312 0.576 13.236 2.921 21.591 15.957 18.676 29.141a260.842 260.842 0 0 1-16.701 50.354c-14.66 32.59-35.515 61.437-61.993 85.739zM552.093 639.29c-13.466 1.889-25.808-7.497-27.668-20.86-1.862-13.371 7.516-25.712 20.943-27.564a213.182 213.182 0 0 0 53.669-14.719 24.5 24.5 0 0 1 9.551-1.944c9.551 0 18.641 5.602 22.604 14.924 5.279 12.435-0.552 26.781-13.036 32.034a262.107 262.107 0 0 1-66.063 18.129zM1059.834190997281 465.0846035379813c-5.930819912053976 31.780263300996946-32.00684877983283 56.65846893357054-77.48783404383873 73.94716095465073-13.908608640193346 5.295060655902788-29.527607666744984-1.65979362894834-34.83696740626363-15.526604947803028-5.314859387063207-13.86901117787251 1.6619934879661642-29.409915209291395 15.592600718337753-34.703875935685275 25.58656023631298-9.720077070256115 41.497040582726314-21.954592997885268 43.66500164479205-33.54675009230976 9.270205901111073-49.70911429626397-169.99960524990766-157.5902005303615-472.02044966600647-213.46441972407774-136.84882978080626-25.322577154174077-267.99232519888557-33.97792245980329-369.22763734013625-24.42283481588399-97.07097902050954 9.182211540398107-144.40644543654122 34.144011815649016-148.26389822429593 54.807287570071495-2.2757541539391086 12.216917055486554 9.242707663388272 30.263460508207174 31.611974086133394 49.52102635024 11.277577254875633 9.707977845658084 12.517197811419555 26.690889463260714 2.7663227149139002 37.921169749253124-9.751975026014568 11.236879863045884-26.787683260044982 12.465501124500687-38.067460373938445 2.753123560806955-38.89240750562251-33.48075432177503-55.50574280823067-67.13859729448491-49.3747357255547-100.01659024537612 9.929063676949413-53.2431878083985 77.77821543419154-87.3124044174415 196.22302467188075-98.51188667718436 4.370019938907723-0.4168732838776812 8.885230572991842-0.7325530529354504 13.355344097210565-1.0878302843140546 0.6984552381591755-1.4750054714511092 1.4167092074787686-2.959910308482427 2.3692481621966364-4.350221207747306 76.67278627773487-112.34020046322715 203.76304145547314-179.41720170521296 339.97391212111035-179.41720170521296 192.20828196435164 0 356.77863515826925 130.08756308952368 400.1884531569937 316.33532704508076 0.7765502332919336 3.332786412003625 0.841446074317747 6.624875432177503 0.5543644724916921 9.850968681816656 94.75562740424961 47.88543117048773 153.51056198180657 103.4439705951462 142.97873693397332 159.9121517236749z m-543.7171548454231-423.36616776878924c-100.93613131482662 0-195.96234137826858 43.507711725017614-261.6402322849182 118.14562841126515 87.62588432748144 0.1935875935685274 187.49288415964554 10.068754724581249 290.1306064247591 29.05243811889497 106.64696532509817 19.736035178409587 212.0081130542781 48.81157181699171 299.53940344399314 83.73763351347722-48.4463952200329-137.690275855124-178.290873888087-230.93570004363735-328.029777583834-230.93570004363735z"  horiz-adv-x="1075" />

    
    <glyph glyph-name="gongsi" unicode="&#58977;" d="M848 576H608v144c0 27.2-20.8 48-48 48H176c-27.2 0-48-20.8-48-48v-720h768V528c0 27.2-20.8 48-48 48zM403.2 48h-72v131.2c0 6.4 4.8 12.8 12.8 12.8h60.8v-144z m156.8 0h-108.8v144c0 27.2-20.8 48-48 48h-60.8c-33.6 0-60.8-27.2-60.8-60.8V48H176V720h384v-672z m288 0H608V528h240v-480zM272 528h192c12.8 0 24 11.2 24 24S476.8 576 464 576H272c-12.8 0-24-11.2-24-24S259.2 528 272 528z m0-156.8h192c12.8 0 24 11.2 24 24s-11.2 24-24 24H272c-12.8 0-24-11.2-24-24s11.2-24 24-24z m408 25.6h96c12.8 0 24 11.2 24 24s-11.2 24-24 24h-96c-12.8 0-24-11.2-24-24s11.2-24 24-24z m0-132.8h96c12.8 0 24 11.2 24 24s-11.2 24-24 24h-96c-12.8 0-24-11.2-24-24s11.2-24 24-24z m0-132.8h96c12.8 0 24 11.2 24 24s-11.2 24-24 24h-96c-12.8 0-24-11.2-24-24s11.2-24 24-24z"  horiz-adv-x="1024" />

    


  </font>
</defs>
</svg>
